<?xml version="1.0" standalone="no"?><!DOCTYPE svg PUBLIC "-//W3C//DTD SVG 1.1//EN" "http://www.w3.org/Graphics/SVG/1.1/DTD/svg11.dtd"><svg t="1564382757264" class="icon" viewBox="0 0 1024 1024" version="1.1" xmlns="http://www.w3.org/2000/svg" p-id="13286" xmlns:xlink="http://www.w3.org/1999/xlink" width="200" height="200"><defs><style type="text/css"></style></defs><path d="M134.8 577.4c0-118.7 96.3-215 215-215 11.8 0 23.4 1 34.8 2.8 25-77.7 97.8-134 183.9-134 106.7 0 193.1 86.5 193.1 193.1 0 8.7-0.6 17.3-1.8 25.8 90.3 4.8 162.1 79.5 162.1 171 0 93.4-74.7 169.2-167.6 171.2v0.1H338.9v-0.3c-113.7-5.7-204.1-99.6-204.1-214.7z" fill="#5B79FB" p-id="13287"></path><path d="M824 664.1s-91.7 40.2-201 25.2c0 0-16 3.2-93.3-18.2-77.3-21.3-297-74.3-297-74.3S73 545.3 69.4 476.2L824 664.1z" fill="#A4BEFF" p-id="13288"></path><path d="M393.4 452.7l0.1-0.5 127.2 35.1c71.7-95.9 199.5-135.4 257.8-140.6 62-5.6 34.4 39.7 34.4 39.7L710.2 539.5l81.5 22.5 55.4-52.8s39.7-34.4 104.9-24c0 0 35.1 9.7-25.2 91.3 0 0-98.1 109-147.3 95.5L69.9 476.4c15.2-55 157-64.4 323.5-23.7z" fill="#E5ECFF" p-id="13289"></path><path d="M436.9 536.2l25.4 5.9c0.8 0.2 1.5-0.3 1.7-1.1l7.6-32.7c0.2-0.8-0.3-1.5-1.1-1.7l-25.4-5.9c-0.8-0.2-1.5 0.3-1.7 1.1l-7.6 32.7c-0.1 0.8 0.3 1.6 1.1 1.7zM389 525l25.4 5.9c0.8 0.2 1.5-0.3 1.7-1.1l7.6-32.7c0.2-0.8-0.3-1.5-1.1-1.7l-25.4-5.9c-0.8-0.2-1.5 0.3-1.7 1.1l-7.6 32.7c-0.1 0.8 0.3 1.6 1.1 1.7zM341.1 513.8l25.4 5.9c0.8 0.2 1.5-0.3 1.7-1.1l7.6-32.7c0.2-0.8-0.3-1.5-1.1-1.7l-25.4-5.9c-0.8-0.2-1.5 0.3-1.7 1.1l-7.6 32.7c-0.2 0.8 0.3 1.6 1.1 1.7zM293.2 502.7l25.4 5.9c0.8 0.2 1.5-0.3 1.7-1.1l7.6-32.7c0.2-0.8-0.3-1.5-1.1-1.7l-25.4-5.9c-0.8-0.2-1.5 0.3-1.7 1.1l-7.6 32.7c-0.2 0.7 0.3 1.5 1.1 1.7zM245.3 491.5l25.4 5.9c0.8 0.2 1.5-0.3 1.7-1.1l7.6-32.7c0.2-0.8-0.3-1.5-1.1-1.7l-25.4-5.9c-0.8-0.2-1.5 0.3-1.7 1.1l-7.6 32.7c-0.2 0.7 0.3 1.5 1.1 1.7z" fill="#A4BEFF" p-id="13290"></path><path d="M196.5 453.9l-4.2 15.2c-1.5 5.5-7.2 8.7-12.7 7.2l-90.2-24.9c14.5-9.8 36-16.7 62.9-20.4l36.9 10.2c5.6 1.5 8.8 7.3 7.3 12.7z" fill="#FF7E71" p-id="13291"></path></svg>